<svg version="1.0" xmlns="http://www.w3.org/2000/svg"
 width="512.000000pt" height="512.000000pt" viewBox="0 0 512.000000 512.000000"
 preserveAspectRatio="xMidYMid meet">

<g transform="translate(0.000000,512.000000) scale(0.100000,-0.100000)"
fill="#000000" stroke="none">
<path d="M2051 5095 c-122 -35 -280 -147 -401 -288 -79 -91 -196 -262 -259
-378 l-41 -76 37 -11 c21 -6 97 -22 168 -36 574 -113 1284 -123 1885 -26 144
24 301 59 313 70 12 11 -70 167 -153 292 -125 190 -284 349 -411 414 -155 78
-337 70 -471 -21 -126 -87 -200 -86 -318 2 -30 22 -71 46 -90 52 -58 20 -198
23 -259 6z"/>
<path d="M4890 4324 c-185 -49 -735 -160 -960 -193 -958 -140 -1425 -158
-2130 -80 -530 58 -1173 166 -1542 259 -128 33 -164 36 -201 19 -53 -24 -62
-82 -48 -323 23 -390 85 -698 201 -1007 49 -130 126 -299 137 -299 4 0 18 52
30 115 27 138 80 306 139 439 44 100 145 277 189 331 l23 30 58 -46 c419 -323
889 -515 1424 -581 137 -17 564 -17 700 0 488 61 891 214 1280 486 47 33 108
79 137 103 28 23 53 43 56 43 10 0 134 -200 182 -295 85 -166 172 -433 190
-580 4 -30 11 -55 15 -55 4 0 32 55 62 123 128 283 203 546 248 867 24 167 44
487 35 558 -13 108 -67 129 -225 86z"/>
<path d="M1759 2700 c-102 -17 -183 -83 -232 -188 -42 -90 -50 -221 -18 -319
41 -126 127 -210 238 -233 228 -48 418 177 374 442 -26 155 -125 273 -246 293
-22 4 -47 8 -55 10 -8 1 -36 -1 -61 -5z"/>
<path d="M3257 2699 c-62 -10 -125 -47 -176 -105 -125 -142 -118 -416 14 -549
119 -119 308 -121 424 -5 140 140 147 412 15 559 -74 82 -170 117 -277 100z"/>
<path d="M1724 1540 c-68 -27 -84 -120 -35 -206 67 -117 266 -253 471 -324
235 -80 535 -82 784 -3 271 85 516 287 516 424 0 48 -31 95 -74 109 -30 10
-50 7 -148 -19 -431 -116 -922 -116 -1355 -1 -121 32 -127 33 -159 20z"/>
</g>
</svg>
